HIERARCHY
ROOT hip
{
  OFFSET 0 0 0
  CHANNELS 6 Xposition Yposition Zposition Zrotation Yrotation Xrotation
  JOINT abdomen
  {
    OFFSET 0 20.6881 -0.73152
    CHANNELS 3 Zrotation Xrotation Yrotation
    JOINT chest
    {
      OFFSET 0 11.7043 -0.48768
      CHANNELS 3 Zrotation Xrotation Yrotation
      JOINT neck
      {
        OFFSET 0 22.1894 -2.19456
        CHANNELS 3 Zrotation Xrotation Yrotation
        JOINT head
        {
          OFFSET -0.24384 7.07133 1.2192
          CHANNELS 3 Zrotation Xrotation Yrotation
          JOINT leftEye
          {
            OFFSET 4.14528 8.04674 8.04672
            CHANNELS 3 Zrotation Xrotation Yrotation
            End Site
            {
              OFFSET 1 0 0
            }
          }
          JOINT rightEye
          {
            OFFSET -3.6576 8.04674 8.04672
            CHANNELS 3 Zrotation Xrotation Yrotation
            End Site
            {
              OFFSET 1 0 0
            }
          }
        }
      }
      JOINT rCollar
      {
        OFFSET -2.68224 19.2634 -4.8768
        CHANNELS 3 Zrotation Xrotation Yrotation
        JOINT rShldr
        {
          OFFSET -8.77824 -1.95073 1.46304
          CHANNELS 3 Zrotation Xrotation Yrotation
          JOINT rForeArm
          {
            OFFSET -28.1742 -1.7115 0.48768
            CHANNELS 3 Zrotation Xrotation Yrotation
            JOINT rHand
            {
              OFFSET -22.5879 0.773209 7.07136
              CHANNELS 3 Zrotation Xrotation Yrotation
              JOINT rThumb1
              {
                OFFSET -1.2192 -0.487915 3.41376
                CHANNELS 3 Zrotation Xrotation Yrotation
                JOINT rThumb2
                {
                  OFFSET -3.37035 -0.52449 3.41376
                  CHANNELS 3 Zrotation Xrotation Yrotation
                  End Site
                  {
                    OFFSET -1.78271 -1.18214 1.43049
                  }
                }
              }
              JOINT rIndex1
              {
                OFFSET -7.75947 0.938293 5.60832
                CHANNELS 3 Zrotation Xrotation Yrotation
                JOINT rIndex2
                {
                  OFFSET -2.54057 -0.884171 1.56538
                  CHANNELS 3 Zrotation Xrotation Yrotation
                  End Site
                  {
                    OFFSET -1.62519 -0.234802 1.16502
                  }
                }
              }
              JOINT rMid1
              {
                OFFSET -8.24714 1.18213 3.41376
                CHANNELS 3 Zrotation Xrotation Yrotation
                JOINT rMid2
                {
                  OFFSET -3.10165 -0.590103 1.0647
                  CHANNELS 3 Zrotation Xrotation Yrotation
                  End Site
                  {
                    OFFSET -2.48547 -0.328903 0.83742
                  }
                }
              }
              JOINT rRing1
              {
                OFFSET -8.82822 0.546677 1.51678
                CHANNELS 3 Zrotation Xrotation Yrotation
                JOINT rRing2
                {
                  OFFSET -2.60934 -0.819778 -0.0198488
                  CHANNELS 3 Zrotation Xrotation Yrotation
                  End Site
                  {
                    OFFSET -2.33842 -0.294052 0.168128
                  }
                }
              }
              JOINT rPinky1
              {
                OFFSET -8.27202 -0.0477905 -0.4584
                CHANNELS 3 Zrotation Xrotation Yrotation
                JOINT rPinky2
                {
                  OFFSET -1.82734 -0.647385 -0.700984
                  CHANNELS 3 Zrotation Xrotation Yrotation
                  End Site
                  {
                    OFFSET -1.69225 -0.51767 -0.607171
                  }
                }
              }
            }
          }
        }
      }
      JOINT lCollar
      {
        OFFSET 2.68224 19.2634 -4.8768
        CHANNELS 3 Zrotation Xrotation Yrotation
        JOINT lShldr
        {
          OFFSET 8.77824 -1.95073 1.46304
          CHANNELS 3 Zrotation Xrotation Yrotation
          JOINT lForeArm
          {
            OFFSET 28.1742 -1.7115 0.48768
            CHANNELS 3 Zrotation Xrotation Yrotation
            JOINT lHand
            {
              OFFSET 22.5879 0.773209 7.07136
              CHANNELS 3 Zrotation Xrotation Yrotation
              JOINT lThumb1
              {
                OFFSET 1.2192 -0.487915 3.41376
                CHANNELS 3 Zrotation Xrotation Yrotation
                JOINT lThumb2
                {
                  OFFSET 3.37035 -0.52449 3.41376
                  CHANNELS 3 Zrotation Xrotation Yrotation
                  End Site
                  {
                    OFFSET 1.78271 -1.18214 1.43049
                  }
                }
              }
              JOINT lIndex1
              {
                OFFSET 7.75947 0.938293 5.60832
                CHANNELS 3 Zrotation Xrotation Yrotation
                JOINT lIndex2
                {
                  OFFSET 2.54057 -0.884171 1.56538
                  CHANNELS 3 Zrotation Xrotation Yrotation
                  End Site
                  {
                    OFFSET 1.62519 -0.234802 1.16502
                  }
                }
              }
              JOINT lMid1
              {
                OFFSET 8.24714 1.18213 3.41376
                CHANNELS 3 Zrotation Xrotation Yrotation
                JOINT lMid2
                {
                  OFFSET 3.10165 -0.590103 1.0647
                  CHANNELS 3 Zrotation Xrotation Yrotation
                  End Site
                  {
                    OFFSET 2.48547 -0.328903 0.83742
                  }
                }
              }
              JOINT lRing1
              {
                OFFSET 8.82822 0.546677 1.51678
                CHANNELS 3 Zrotation Xrotation Yrotation
                JOINT lRing2
                {
                  OFFSET 2.60934 -0.819778 -0.0198488
                  CHANNELS 3 Zrotation Xrotation Yrotation
                  End Site
                  {
                    OFFSET 2.33842 -0.294052 0.168128
                  }
                }
              }
              JOINT lPinky1
              {
                OFFSET 8.27202 -0.0477905 -0.4584
                CHANNELS 3 Zrotation Xrotation Yrotation
                JOINT lPinky2
                {
                  OFFSET 1.82734 -0.647385 -0.700984
                  CHANNELS 3 Zrotation Xrotation Yrotation
                  End Site
                  {
                    OFFSET 1.69225 -0.51767 -0.607171
                  }
                }
              }
            }
          }
        }
      }
    }
  }
  JOINT rButtock
  {
    OFFSET -8.77824 4.35084 1.2192
    CHANNELS 3 Zrotation Xrotation Yrotation
    JOINT rThigh
    {
      OFFSET 0 -1.70687 -2.19456
      CHANNELS 3 Zrotation Xrotation Yrotation
      JOINT rShin
      {
        OFFSET 0 -36.8199 0.73152
        CHANNELS 3 Zrotation Xrotation Yrotation
        JOINT rFoot
        {
          OFFSET 0.73152 -45.1104 -5.12064
          CHANNELS 3 Zrotation Xrotation Yrotation
          End Site
          {
            OFFSET -1.1221 -3.69964 12.103
          }
        }
      }
    }
  }
  JOINT lButtock
  {
    OFFSET 8.77824 4.35084 1.2192
    CHANNELS 3 Zrotation Xrotation Yrotation
    JOINT lThigh
    {
      OFFSET 0 -1.70687 -2.19456
      CHANNELS 3 Zrotation Xrotation Yrotation
      JOINT lShin
      {
        OFFSET 0 -36.8199 0.73152
        CHANNELS 3 Zrotation Xrotation Yrotation
        JOINT lFoot
        {
          OFFSET -0.73152 -45.1104 -5.12064
          CHANNELS 3 Zrotation Xrotation Yrotation
          End Site
          {
            OFFSET 1.1221 -3.69964 12.103
          }
        }
      }
    }
  }
}
MOTION
Frames:	4
Frame Time:	0.03333
-0.005111657083034515 -8.138686418533325 -0.017381273210048676 -3.976515531539917 1.2242668867111206 6.709232807159424 -2.1483309268951416 13.84727954864502 3.5761830806732178 2.5682857036590576 -9.324040412902832 1.163288950920105 -5.226532936096191 15.093443870544434 -3.6851694583892822 8.69292163848877 -24.47516441345215 -5.379251480102539 -0.14250177145004272 -0.016204945743083954 0.004107341635972261 -0.09250619262456894 -0.010564328171312809 -0.07562675327062607 0.020664088428020477 -0.045002441853284836 0.10574039816856384 47.21418762207031 38.12824249267578 17.067363739013672 -27.447067260742188 -27.725269317626953 63.49261474609375 -0.20729771256446838 -10.7976655960083 -1.6459954977035522 -0.03695109486579895 -0.0010457038879394531 0.09376242756843567 0.03246663138270378 -0.10659302026033401 -0.0838465765118599 0.10140324383974075 -0.0638088583946228 -0.021573513746261597 7.695093154907227 5.504587650299072 0.4001903235912323 0.01815413311123848 0.03289413079619408 -0.08312001079320908 2.9575138092041016 0.8871521353721619 0.12341724336147308 -0.12785783410072327 -0.04004910960793495 -0.02065928652882576 10.285358428955078 0.7608511447906494 0.00832399632781744 0.0062760054133832455 -0.05135631188750267 0.04869059473276138 2.298556327819824 -0.7611382007598877 -0.26942428946495056 -0.01483350619673729 -0.05001962184906006 -0.08476129174232483 -54.042789459228516 40.03959274291992 -27.870813369750977 26.637147903442383 -25.24433708190918 -59.59498977661133 0.13461388647556305 -11.866384506225586 1.53097665309906 0.019656874239444733 0.05214903503656387 0.01020619086921215 0.02888280339539051 0.04378197342157364 0.017356812953948975 -0.07861252129077911 -0.020763467997312546 -0.003644276410341263 -7.784485816955566 5.45059871673584 -0.44468092918395996 0.01980063132941723 0.14474838972091675 -0.0973210409283638 -2.9710705280303955 0.989429235458374 -0.11595547199249268 -0.07609062641859055 0.09448450803756714 -0.06619323790073395 -10.284058570861816 0.7464238405227661 -0.09632435441017151 -0.03196234628558159 0.05345824360847473 -0.07269696146249771 -2.1313846111297607 -0.6572090983390808 0.17060334980487823 -0.005864282604306936 -0.07819029688835144 0.05026371404528618 -22.778995513916016 -38.7089958190918 -19.146812438964844 -1.3719406127929688 64.32608795166016 2.389113187789917 -3.781712055206299 -11.31583309173584 -10.386770248413086 0.031315337866544724 0.053148768842220306 0.019414851441979408 28.72007942199707 -39.104305267333984 22.024248123168945 1.6335276365280151 64.4141845703125 -2.6780285835266113 4.348924160003662 -10.16497802734375 14.028277397155762
-0.010472722351551056 -8.159710466861725 -0.038720108568668365 -4.245574474334717 1.101467251777649 6.451903820037842 -2.0866646766662598 13.744988441467285 3.566767454147339 2.5297470092773438 -9.289412498474121 1.0633386373519897 -5.219742774963379 15.135201454162598 -3.6573996543884277 8.686689376831055 -24.462886810302734 -5.26944637298584 -0.13463537395000458 -0.0452561154961586 0.008467438630759716 -0.06170446053147316 -0.06316567957401276 -0.02433438040316105 0.008886258117854595 -0.04614981263875961 0.07789687812328339 47.38055419921875 37.9815559387207 16.964521408081055 -27.433256149291992 -27.780534744262695 63.564422607421875 -0.24689747393131256 -10.971688270568848 -1.6499638557434082 0.0034037891309708357 0.01246718317270279 0.11447227001190186 0.0482538603246212 -0.04887557029724121 -0.033064354211091995 0.09811462461948395 -0.07754393666982651 -0.04016491025686264 7.683821678161621 5.491125583648682 0.39923936128616333 -0.0016961925430223346 0.05463046953082085 -0.06376185268163681 2.9453606605529785 0.8649914860725403 0.07566819339990616 -0.12561607360839844 -0.011448761448264122 0.010433240793645382 10.259102821350098 0.7542231678962708 -0.08716114610433578 0.00196828949265182 -0.010900073684751987 0.08549267798662186 2.288966655731201 -0.7699267864227295 -0.29203763604164124 0.02735697291791439 -0.0690775066614151 -0.08527494966983795 -53.73664855957031 40.11177444458008 -28.058570861816406 26.551513671875 -25.11211395263672 -59.455562591552734 0.17789721488952637 -11.706376075744629 1.5261616706848145 -0.043723564594984055 0.0521390363574028 0.011905773542821407 0.047088805586099625 0.05053802579641342 0.0026522469706833363 -0.07210458070039749 -0.034921009093523026 0.03071250021457672 -7.852605819702148 5.439326763153076 -0.4131101965904236 -0.017992185428738594 0.1313801258802414 -0.1576652228832245 -2.97896146774292 1.0110232830047607 -0.09344777464866638 -0.10459151864051819 0.0432831235229969 -0.054267171770334244 -10.272834777832031 0.7583719491958618 -0.06560170650482178 -0.030863525345921516 0.0861634910106659 -0.008221214637160301 -2.1459555625915527 -0.6190426349639893 0.17879323661327362 -0.045092690736055374 -0.10654020309448242 0.06972619891166687 -22.76759147644043 -38.5914306640625 -19.259231567382812 -1.4804619550704956 64.3163833618164 2.4712212085723877 -3.7206950187683105 -11.406815528869629 -10.202460289001465 0.06740953773260117 0.04378174617886543 -0.0060188500210642815 28.588363647460938 -38.981292724609375 22.023693084716797 1.725591778755188 64.25753784179688 -2.7270357608795166 4.410323143005371 -10.057574272155762 14.264554977416992
0.008298084139823914 -7.72402286529541 -0.09321607649326324 -22.493982315063477 72.1274185180664 -10.146244049072266 -0.32855165004730225 19.525970458984375 -4.6656494140625 7.930247783660889 -10.615221977233887 -0.5808025598526001 -9.68081283569336 22.55447769165039 -17.36299705505371 21.7385196685791 -30.999942779541016 -29.319616317749023 0.1531398594379425 -0.23747728765010834 0.08937118947505951 -0.18636904656887054 -0.04147752374410629 -0.03933453932404518 -0.04846332594752312 0.2294621467590332 0.3504147231578827 53.79405975341797 22.496620178222656 -1.186938762664795 -27.65256690979004 -41.84745788574219 87.5693359375 0.128666490316391 -3.4823644161224365 -0.7225457429885864 0.06156890094280243 0.3093119263648987 0.08305639773607254 0.055348098278045654 -0.07692087441682816 -0.11284959316253662 0.17073595523834229 -0.08321534842252731 -0.13076700270175934 7.732607841491699 5.499277114868164 0.31324514746665955 -0.05516224354505539 -0.22518916428089142 0.0033877408131957054 2.9365875720977783 1.0866652727127075 -0.003197786398231983 -0.30443692207336426 -0.010369986295700073 -0.12859146296977997 10.499146461486816 0.7757171392440796 -0.09673281759023666 0.1830773502588272 0.05001426860690117 0.03306594118475914 2.3956363201141357 -0.8180060386657715 -0.04341655969619751 0.018381567671895027 0.030291372910141945 -0.17855823040008545 -51.19285202026367 58.55337142944336 -22.61628532409668 27.718027114868164 -40.811763763427734 -85.8115463256836 1.7347267866134644 -32.68684387207031 5.088268280029297 0.09970328211784363 0.036661453545093536 -0.09688103199005127 0.06097361445426941 -0.00894345436245203 -0.1559038907289505 -0.15097524225711823 -0.15287716686725616 -0.06334429234266281 -7.746072769165039 5.5079240798950195 -0.30425915122032166 -0.23986612260341644 0.15987011790275574 -0.19442084431648254 -2.87945294380188 0.9044204950332642 -0.08281716704368591 -0.20026250183582306 0.009524290449917316 -0.3286098539829254 -10.450126647949219 0.6862239837646484 -0.06060957536101341 -0.289100706577301 0.08838029205799103 0.028658274561166763 -2.166426420211792 -0.7195336222648621 0.16710017621517181 -0.25247228145599365 -0.047330036759376526 -0.003677041968330741 -52.264381408691406 -49.816410064697266 -45.4155387878418 -2.563572406768799 73.87126922607422 3.07073974609375 1.5977740287780762 -0.48989054560661316 3.8722140789031982 -0.018055256456136703 0.1800210326910019 -0.014854607172310352 43.84086227416992 -39.40156555175781 34.48733139038086 3.421722650527954 79.20564270019531 -5.665234088897705 7.5251545906066895 -17.745746612548828 19.031536102294922
-0.015989691019058228 -7.725968956947327 -0.16076313331723213 -18.53221893310547 68.85637664794922 -6.889850616455078 -1.7334867715835571 19.405000686645508 -4.115602493286133 8.148077964782715 -10.79078483581543 -0.38540831208229065 -9.581795692443848 22.86894416809082 -18.0369815826416 22.91889762878418 -34.33157730102539 -29.31785774230957 0.1699146032333374 -0.43999791145324707 0.1697133630514145 -0.21406491100788116 0.272759348154068 -0.24634434282779694 -0.2557474672794342 -0.023281799629330635 0.326839417219162 52.527130126953125 24.551517486572266 -0.18759456276893616 -27.884347915649414 -41.25758361816406 86.34324645996094 0.14022602140903473 -3.650466203689575 -0.7969681620597839 -0.01390712521970272 0.2959757149219513 0.0635911077260971 -0.21452303230762482 -0.001102682901546359 0.12429887056350708 0.1273319274187088 -0.2662988305091858 -0.25965067744255066 7.57395601272583 5.3812947273254395 0.36024975776672363 -0.048498865216970444 -0.281747967004776 -0.22535362839698792 2.8159499168395996 1.0484230518341064 -0.11901159584522247 -0.41951802372932434 0.10360244661569595 0.06725132465362549 10.400955200195312 0.8895558714866638 -0.0967954620718956 0.1919306069612503 0.038304008543491364 -0.09286785870790482 2.406027317047119 -0.7406647205352783 -0.10207391530275345 0.06476107239723206 -0.09732624888420105 -0.2781211733818054 -48.94121551513672 57.40753173828125 -25.410680770874023 27.53842544555664 -41.26179885864258 -86.42353057861328 1.418578028678894 -31.6856632232666 5.009293556213379 -0.060190893709659576 0.039985932409763336 -0.230776846408844 0.010351624339818954 0.03711390867829323 -0.07910963147878647 -0.004108558874577284 -0.0647691860795021 -0.0812695175409317 -7.634744167327881 5.467785835266113 -0.35535967350006104 -0.07311156392097473 0.2160784751176834 -0.1280975043773651 -2.788480520248413 0.8763110041618347 -0.06697521358728409 -0.13331735134124756 -0.19538997113704681 -0.34561288356781006 -10.489778518676758 0.7216108441352844 0.10018268972635269 -0.04218730330467224 0.1084742471575737 0.21288496255874634 -1.9368383884429932 -0.6454737186431885 0.23716774582862854 0.10544515401124954 0.020967798307538033 0.07206379622220993 -53.43118667602539 -50.61775207519531 -45.61172103881836 -1.6851812601089478 72.98717498779297 2.346280097961426 1.367135763168335 5.3271260261535645 0.9892813563346863 -0.1296316534280777 0.19720298051834106 -0.07407648116350174 39.84474182128906 -37.6991081237793 30.178386688232422 1.480733871459961 73.37843322753906 -3.5908820629119873 6.8742451667785645 -15.81219482421875 21.015520095825195
